<svg width="173" height="512" viewBox="0 0 173 512" fill="none" xmlns="http://www.w3.org/2000/svg">
<g clip-path="url(#clip0_15_199)">
<path d="M334.764 566.03C212.054 533.334 -19.1218 415.337 2.24257 252.04C7.57407 211.29 90.2979 124.331 220.271 263.548C282.174 329.853 164.943 402.186 82.2233 281.083C-34.908 109.601 151.247 56.4135 220.271 128.198C289.295 199.983 202.626 214.189 164.943 167.652C120.57 112.855 107.422 -13.1793 229.036 35.5904C240.541 40.2039 250.949 49.8377 247.114 65.181C243.206 80.8187 218.263 69.1995 207.672 61.8932C181.925 42.1661 170.202 -9.78194 250.401 1.61594" stroke="white" stroke-opacity="0.1" stroke-width="3"/>
</g>
<defs>
<clipPath id="clip0_15_199">
<rect width="200" height="512" fill="white"/>
</clipPath>
</defs>
</svg>
